<?xml version="1.0" encoding="UTF-8"?>
<svg width="44px" height="44px" viewBox="0 0 44 44" version="1.1" xmlns="http://www.w3.org/2000/svg" xmlns:xlink="http://www.w3.org/1999/xlink">
    <!-- Generator: Sketch 63.1 (92452) - https://sketch.com -->
    <title>图标 / 工具 / 电话 / 电话</title>
    <desc>Created with Sketch.</desc>
    <g id="图标-/-工具-/-电话-/-电话" stroke="none" stroke-width="1" fill="none" fill-rule="evenodd">
        <path d="M26.6140964,17.3264452 L26.9115237,17.2146737 C28.6423723,16.5895771 29.7957785,14.9467006 29.7957785,13.106429 L29.7957785,5.9119533 C29.7957785,4.02758254 28.268175,2.5 26.3838062,2.5 C25.9944135,2.5 25.6078941,2.56665624 25.2409934,2.69708093 C16.1207116,5.93913015 11.5,13.1423494 11.5,23.9761165 C11.5,34.8056516 16.1165357,42.0222818 25.2295466,45.2983052 C27.0028149,45.9357974 28.9571326,45.0150425 29.5946103,43.2417521 C29.7277192,42.8714791 29.7957785,42.4809722 29.7957785,42.0875004 C29.7957785,41.2590733 29.1242056,40.5875004 28.2957785,40.5875004 C27.4673514,40.5875004 26.7957785,41.2590733 26.7957785,42.0875004 C26.7957785,42.1350106 26.7875606,42.1821629 26.7714882,42.2268719 C26.6945162,42.4409871 26.4585491,42.5521604 26.2444427,42.4751888 C18.3747888,39.6461381 14.5,33.5890165 14.5,23.9761165 C14.5,14.3622953 18.3748946,8.32172889 26.245825,5.52379521 C26.2901239,5.50804796 26.3367916,5.5 26.3838062,5.5 C26.6113299,5.5 26.7957785,5.68444601 26.7957785,5.9119533 L26.7957785,13.106429 C26.7957785,13.6827658 26.4345552,14.1972811 25.8924884,14.3930488 C21.4082696,16.0125401 18.9770738,19.2679529 18.7999169,23.9190237 L18.801272,24.0616741 C19.0646465,28.6716528 21.4938024,31.9075751 25.9037103,33.5439175 C26.4399421,33.7428919 26.7957785,34.2544728 26.7957785,34.8264316 L26.7957785,38.6897713 C26.7957785,39.5181984 27.4673514,40.1897713 28.2957785,40.1897713 C29.1242056,40.1897713 29.7957785,39.5181984 29.7957785,38.6897713 L29.7957785,34.8264316 C29.7957785,33.0001424 28.6595751,31.3666393 26.94736,30.7313039 C23.7689592,29.5519251 22.116272,27.4636121 21.8240973,24.2650094 L21.8006867,23.9618814 C21.9462851,20.6876402 23.4909267,18.5473367 26.6140964,17.3264452 Z" id="路径" fill="#111111" transform="translate(20.647889, 24.000206) rotate(-45.000000) translate(-20.647889, -24.000206) "></path>
    </g>
</svg>