<?xml version="1.0" encoding="UTF-8"?>
<svg width="80px" height="80px" viewBox="0 0 80 80" version="1.1" xmlns="http://www.w3.org/2000/svg" xmlns:xlink="http://www.w3.org/1999/xlink">
    <!-- Generator: Sketch 63.1 (92452) - https://sketch.com -->
    <title>图标 / 应用中心 / 日程</title>
    <desc>Created with Sketch.</desc>
    <defs>
        <linearGradient x1="50%" y1="100%" x2="50%" y2="1.41638472e-14%" id="linearGradient-1">
            <stop stop-color="#FF839F" offset="0%"></stop>
            <stop stop-color="#FE494C" offset="100%"></stop>
        </linearGradient>
        <linearGradient x1="100%" y1="50%" x2="0%" y2="50%" id="linearGradient-2">
            <stop stop-color="#FFFFFF" stop-opacity="0.85" offset="0%"></stop>
            <stop stop-color="#FFFFFF" offset="100%"></stop>
        </linearGradient>
        <linearGradient x1="100%" y1="-1.57775533%" x2="0%" y2="-1.57775533%" id="linearGradient-3">
            <stop stop-color="#FFFFFF" offset="0%"></stop>
            <stop stop-color="#FFFFFF" stop-opacity="0.67578125" offset="100%"></stop>
        </linearGradient>
        <linearGradient x1="100%" y1="-1.57775533%" x2="0%" y2="-1.57775533%" id="linearGradient-4">
            <stop stop-color="#FFFFFF" offset="0%"></stop>
            <stop stop-color="#FFFFFF" stop-opacity="0.67578125" offset="100%"></stop>
        </linearGradient>
    </defs>
    <g id="图标-/-应用中心-/-日程" stroke="none" stroke-width="1" fill="none" fill-rule="evenodd">
        <rect id="Rectangle" fill="url(#linearGradient-1)" x="0" y="0" width="80" height="80"></rect>
        <g id="编组" transform="translate(20.000000, 21.000000)">
            <path d="M0,11 L40,11 L40,31 C40,33.209139 38.209139,35 36,35 L4,35 C1.790861,35 2.705415e-16,33.209139 0,31 L0,11 L0,11 Z M25.0192383,20.4765625 C25.0192383,21.396489 24.8200215,22.3164017 24.421582,23.2363281 C24.0231425,24.1562546 23.4562537,25.0380817 22.7208984,25.8818359 C21.9855432,26.7255902 21.1315478,27.4902309 20.1588867,28.1757812 L17.1530273,27.1914062 C18.5475656,26.0019472 19.5788053,24.9033254 20.2467773,23.8955078 C20.0299794,23.9541019 19.7604508,23.9833984 19.4381836,23.9833984 C18.7233363,23.9833984 18.0670928,23.8193376 17.4694336,23.4912109 C16.8717744,23.1630843 16.3942401,22.6958038 16.0368164,22.0893555 C15.6793927,21.4829071 15.5006836,20.7959023 15.5006836,20.0283203 C15.5006836,19.4658175 15.6090809,18.9238307 15.8258789,18.4023438 C16.0426769,17.8808568 16.3620096,17.4091818 16.7838867,16.9873047 C17.2057638,16.5654276 17.7067354,16.2373059 18.2868164,16.0029297 C18.8668974,15.7685535 19.5026333,15.6513672 20.194043,15.6513672 C20.9674843,15.6513672 21.6618133,15.7832018 22.2770508,16.046875 C22.8922882,16.3105482 23.4005839,16.6708962 23.8019531,17.1279297 C24.2033223,17.5849632 24.5065419,18.0991182 24.7116211,18.6704102 C24.9167002,19.2417021 25.0192383,19.8437468 25.0192383,20.4765625 Z M21.8463867,20.0810547 C21.8463867,20.3154309 21.7951177,20.5556628 21.6925781,20.8017578 C21.5900385,21.0478528 21.4186535,21.2617178 21.178418,21.4433594 C20.9381824,21.6250009 20.6217793,21.7158203 20.2291992,21.7158203 C19.8131815,21.7158203 19.4484391,21.5825209 19.1349609,21.315918 C18.8214828,21.0493151 18.6647461,20.6376981 18.6647461,20.0810547 C18.6647461,19.8408191 18.7189448,19.5903333 18.8273438,19.3295898 C18.9357427,19.0688464 19.1115222,18.8461923 19.3546875,18.6616211 C19.5978528,18.4770499 19.9069317,18.3847656 20.2819336,18.3847656 C20.7389671,18.3847656 21.1139634,18.5473617 21.4069336,18.8725586 C21.6999038,19.1977555 21.8463867,19.6005835 21.8463867,20.0810547 Z" id="形状结合" fill="url(#linearGradient-2)"></path>
            <path d="M2,3 L38,3 C39.1045695,3 40,3.8954305 40,5 L40,9 L40,9 L0,9 L0,5 C-1.3527075e-16,3.8954305 0.8954305,3 2,3 Z" id="矩形备份-3" fill="url(#linearGradient-3)" opacity="0.800000012"></path>
            <rect id="矩形备份" fill="url(#linearGradient-4)" opacity="0.800000012" x="10" y="0" width="3" height="3"></rect>
            <rect id="矩形备份-2" fill="url(#linearGradient-4)" opacity="0.800000012" x="27" y="0" width="3" height="3"></rect>
        </g>
    </g>
</svg>