<?xml version="1.0" encoding="UTF-8"?>
<svg width="24px" height="24px" viewBox="0 0 24 24" version="1.1" xmlns="http://www.w3.org/2000/svg" xmlns:xlink="http://www.w3.org/1999/xlink">
    <!-- Generator: Sketch 64 (93537) - https://sketch.com -->
    <title>问icon</title>
    <desc>Created with Sketch.</desc>
    <g id="202004_new" stroke="none" stroke-width="1" fill="none" fill-rule="evenodd">
        <g id="键盘录入" transform="translate(-1312.000000, -259.000000)" fill="#FFFFFF">
            <g id="编组-6" transform="translate(1298.500000, 248.500000)">
                <g id="编组-5" transform="translate(0.500000, 3.500000)">
                    <g id="问icon" transform="translate(13.000000, 7.000000)">
                        <g>
                            <circle id="Oval-Copy-2" opacity="0.100000001" cx="12" cy="12" r="12"></circle>
                            <path d="M12.1605,6 C10.9395,6 9.9825,6.3465 9.2895,7.056 C8.5965,7.749 8.25,8.6895 8.25,9.894 L9.9825,9.894 C9.9825,9.168 10.131,8.607 10.428,8.211 C10.758,7.7325 11.3025,7.5015 12.045,7.5015 C12.639,7.5015 13.1175,7.6665 13.4475,7.9965 C13.761,8.3265 13.926,8.772 13.926,9.3495 C13.926,9.7785 13.761,10.1745 13.464,10.554 L13.1835,10.8675 C12.1605,11.775 11.5335,12.4515 11.319,12.9135 C11.088,13.3425 10.989,13.8705 10.989,14.481 L10.989,14.7615 L12.7545,14.7615 L12.7545,14.481 C12.7545,14.085 12.837,13.722 13.0185,13.392 C13.167,13.095 13.398,12.798 13.7115,12.534 C14.487,11.8575 14.949,11.4285 15.0975,11.247 C15.51,10.719 15.7245,10.0425 15.7245,9.234 C15.7245,8.244 15.3945,7.452 14.7345,6.8745 C14.0745,6.2805 13.2165,6 12.1605,6 Z M11.8635,15.6525 C11.5335,15.6525 11.2365,15.7515 11.0055,15.9825 C10.7745,16.197 10.659,16.4775 10.659,16.824 C10.659,17.154 10.7745,17.4345 11.0055,17.6655 C11.2365,17.8965 11.5335,18.012 11.8635,18.012 C12.1935,18.012 12.4905,17.8965 12.7215,17.682 C12.9525,17.451 13.0845,17.1705 13.0845,16.824 C13.0845,16.4775 12.969,16.197 12.738,15.9825 C12.507,15.7515 12.21,15.6525 11.8635,15.6525 Z" id="？"></path>
                        </g>
                    </g>
                </g>
            </g>
        </g>
    </g>
</svg>