<?xml version="1.0" encoding="UTF-8"?>
<svg width="16px" height="16px" viewBox="0 0 16 16" version="1.1" xmlns="http://www.w3.org/2000/svg" xmlns:xlink="http://www.w3.org/1999/xlink">
    <!-- Generator: Sketch 63.1 (92452) - https://sketch.com -->
    <title>图标 / 工具 / 换一批 / 换一批</title>
    <desc>Created with Sketch.</desc>
    <g id="智能助手" stroke="none" stroke-width="1" fill="none" fill-rule="evenodd" opacity="0.5">
        <g id="智能助手/首页" transform="translate(-581.000000, -408.000000)" fill="#FFFFFF">
            <g id="内容区" transform="translate(48.000000, 400.000000)">
                <g id="换一批" transform="translate(530.000000, 3.000000)">
                    <g id="图标-/-工具-/-换一批-/-换一批" transform="translate(0.000000, 1.000000)">
                        <path d="M29.8410895,12.1322873 C32.3135029,17.9762009 30.3778573,24.821149 25.1045548,28.4888481 C19.8305721,32.1561007 12.7400802,31.5882614 8.12215684,27.235893 C7.6563075,26.7968325 7.63459089,26.0632581 8.07365143,25.5974087 C8.51271196,25.1315594 9.24628636,25.1098428 9.7121357,25.5489033 C13.5362988,29.1531568 19.4118877,29.6237011 23.781002,26.5856469 C27.1523589,24.2407932 28.8772366,20.3273109 28.547974,16.4385309 L27.5088836,17.4435145 C27.2331504,17.7102199 26.9122902,17.8043485 26.610328,17.7755141 C26.4287327,17.7748029 26.2440587,17.7306607 26.0721512,17.638789 C25.5452094,17.357178 25.3244587,16.7266398 25.5426816,16.1847948 L25.5962111,16.0702022 L27.7513406,12.0375903 C28.2107101,11.1780321 29.4613448,11.2347046 29.8410895,12.1322873 Z M26.5196573,7.76314365 C26.9855643,8.20214296 27.0073774,8.93571449 26.568378,9.40162153 C26.1293787,9.86752856 25.3958072,9.88934159 24.9299002,9.45034228 C21.1053112,5.84663648 15.2296257,5.37608445 10.860923,8.41349425 C7.51306126,10.7420065 5.78877613,14.6173977 6.08720095,18.4797079 L7.20475193,17.4002001 L7.26557119,17.3450031 L7.29081066,17.3244536 L7.29081066,17.3244536 L7.28874154,17.3262332 L7.31115082,17.3073878 C7.74433865,16.9683111 8.2624609,17.0105176 8.64328038,17.2617928 L8.66106557,17.2738152 L8.66106557,17.2738152 C8.68539342,17.290401 8.70928213,17.3080334 8.7325145,17.3264912 C8.74840013,17.3388315 8.76379016,17.3517304 8.77878345,17.364975 L8.8176509,17.4006385 L8.8176509,17.4006385 L8.85210682,17.4357725 L8.85210682,17.4357725 C9.1652628,17.7579941 9.30183018,18.2507118 9.04932001,18.7483775 L9.04220466,18.7618009 L6.89953837,22.9443714 C6.45085895,23.8202116 5.18373734,23.7737535 4.80040044,22.867408 C2.32844083,17.0228118 4.26412482,10.1779524 9.53742282,6.51025646 C14.8109784,2.84373332 21.9013541,3.41156335 26.5196573,7.76314365 Z" id="形状结合"></path>
                    </g>
                </g>
            </g>
        </g>
    </g>
</svg>