<?xml version="1.0" encoding="UTF-8"?>
<svg width="44px" height="44px" viewBox="0 0 44 44" version="1.1" xmlns="http://www.w3.org/2000/svg" xmlns:xlink="http://www.w3.org/1999/xlink">
    <!-- Generator: Sketch 63.1 (92452) - https://sketch.com -->
    <title>图标 / 工具 / 评论系统 / 评论</title>
    <desc>Created with Sketch.</desc>
    <g id="图标-/-工具-/-评论系统-/-评论" stroke="none" stroke-width="1" fill="none" fill-rule="evenodd">
        <g id="编组" transform="translate(4.000000, 5.000000)" fill="#111111">
            <path d="M30,0.5 C33.0375661,0.5 35.5,2.96243388 35.5,6 L35.5,6 L35.5,24.9770597 C35.5,28.0146259 33.0375661,30.4770597 30,30.4770597 L30,30.4770597 L7.66886219,30.4770597 L5.13991139,33.8356218 C4.64159123,34.4974137 3.70113459,34.6299337 3.03934269,34.1316136 C2.37755078,33.6332934 2.24503075,32.6928368 2.74335091,32.0310449 L2.74335091,32.0310449 L5.72237024,28.0747713 C6.00576622,27.6984085 6.4495218,27.4770597 6.92065048,27.4770597 L6.92065048,27.4770597 L30,27.4770597 C31.3807119,27.4770597 32.5,26.3577716 32.5,24.9770597 L32.5,24.9770597 L32.5,6 C32.5,4.61928813 31.3807119,3.5 30,3.5 L30,3.5 L6,3.5 C4.61928813,3.5 3.5,4.61928813 3.5,6 L3.5,6 L3.5,27.2215096 C3.5,28.0499367 2.82842712,28.7215096 2,28.7215096 C1.17157288,28.7215096 0.5,28.0499367 0.5,27.2215096 L0.5,27.2215096 L0.5,6 C0.5,2.96243388 2.96243388,0.5 6,0.5 L6,0.5 Z M23.4214532,13.4202745 C24.0878748,12.9281629 25.0270515,13.0694691 25.519163,13.7358907 C26.0112746,14.4023123 25.8699684,15.341489 25.2035468,15.8336005 C23.2561021,17.2716692 20.933347,18.0605625 18.5,18.0605625 C16.066653,18.0605625 13.7438979,17.2716692 11.7964532,15.8336005 C11.1300316,15.341489 10.9887254,14.4023123 11.480837,13.7358907 C11.9729485,13.0694691 12.9121252,12.9281629 13.5785468,13.4202745 C15.0176634,14.482974 16.7182693,15.0605625 18.5,15.0605625 C20.2817307,15.0605625 21.9823366,14.482974 23.4214532,13.4202745 Z" id="形状结合"></path>
        </g>
    </g>
</svg>