<?xml version="1.0" encoding="UTF-8"?>
<svg width="10px" height="11px" viewBox="0 0 10 11" version="1.1" xmlns="http://www.w3.org/2000/svg" xmlns:xlink="http://www.w3.org/1999/xlink">
    <title>图标 / 工具 / 创建 编辑 / 编辑</title>
    <g id="页面-1" stroke="none" stroke-width="1" fill="none" fill-rule="evenodd" opacity="0.7">
        <g id="入口机器人-1210" transform="translate(-1261.000000, -400.000000)" fill="#FFFFFF">
            <g id="编组-11" transform="translate(988.000000, 170.000000)">
                <g id="编组" transform="translate(271.000000, 228.000000)">
                    <g id="编组" transform="translate(1.909091, 1.909091)">
                        <path d="M4.71423324,0.68737165 C4.97782369,0.68737165 5.19150597,0.901053929 5.19150597,1.16464438 C5.19150597,1.42823483 4.97782369,1.64191711 4.71423324,1.64191711 L4.71423324,1.64191711 L1.59090909,1.64191711 C1.32731864,1.64191711 1.11363636,1.85559938 1.11363636,2.11918983 L1.11363636,2.11918983 L1.11363636,8.82222014 C1.11363636,9.08581058 1.32731864,9.29949286 1.59090909,9.29949286 L1.59090909,9.29949286 L8.59090909,9.29949286 C8.85449954,9.29949286 9.06818182,9.08581058 9.06818182,8.82222014 L9.06818182,8.82222014 L9.06818182,4.04709303 C9.06818182,3.78350259 9.2818641,3.56982031 9.54545455,3.56982031 C9.80904499,3.56982031 10.0227273,3.78350259 10.0227273,4.04709303 L10.0227273,4.04709303 L10.0227273,8.82222014 C10.0227273,9.61299148 9.38168044,10.2540383 8.59090909,10.2540383 L8.59090909,10.2540383 L1.59090909,10.2540383 C0.800137745,10.2540383 0.159090909,9.61299148 0.159090909,8.82222014 L0.159090909,8.82222014 L0.159090909,2.11918983 C0.159090909,1.32841849 0.800137745,0.68737165 1.59090909,0.68737165 L1.59090909,0.68737165 Z M8.88355631,0.251446547 C9.06557285,0.060790038 9.36768405,0.053785958 9.55834056,0.235802496 C9.74899707,0.417819035 9.75600115,0.719930232 9.57398461,0.910586741 L9.57398461,0.910586741 L6.09884133,4.5506883 C5.91682479,4.74134481 5.61471359,4.74834889 5.42405708,4.56633235 C5.23340058,4.38431582 5.2263965,4.08220462 5.40841303,3.89154811 L5.40841303,3.89154811 Z" id="形状结合"></path>
                    </g>
                </g>
            </g>
        </g>
    </g>
</svg>